<svg width="20" height="23" viewBox="0 0 20 23" fill="none" xmlns="http://www.w3.org/2000/svg">
<path d="M11.991 1.25295e-10H2.39903C2.08463 -3.10795e-06 1.77334 0.057818 1.48301 0.170143C1.19269 0.282468 0.929058 0.447083 0.70726 0.654536C0.485463 0.861989 0.309867 1.10819 0.190558 1.37901C0.0712488 1.64982 0.0105765 1.93991 0.0120253 2.23262L2.5348e-05 20.0945C-0.00142347 20.3872 0.0592488 20.6773 0.178558 20.9481C0.297867 21.2189 0.473463 21.4651 0.69526 21.6726C0.917058 21.88 1.18069 22.0446 1.47101 22.157C1.76134 22.2693 2.07263 22.3271 2.38703 22.3271H16.787C17.102 22.3272 17.4139 22.2696 17.7049 22.1574C17.9959 22.0453 18.2603 21.8808 18.483 21.6735C18.7057 21.4661 18.8823 21.22 19.0028 20.949C19.1232 20.6781 19.1852 20.3877 19.185 20.0945V6.69786L11.991 1.25295e-10ZM10.793 7.81416V1.67586L17.388 7.8151H10.793V7.81416Z" fill="#697ED4"/>
</svg>
