<svg width="24" height="18" viewBox="0 0 24 18" fill="none" xmlns="http://www.w3.org/2000/svg">
<path d="M21.6 2.23448H12L9.6 0H2.4C2.08547 0.000242493 1.77408 0.0582862 1.48369 0.170803C1.1933 0.28332 0.929615 0.448097 0.707764 0.655686C0.485912 0.863275 0.310254 1.10959 0.19086 1.38052C0.0714654 1.65144 0.0106838 1.94164 0.012 2.23448L0 15.6414C0 16.234 0.252856 16.8024 0.702944 17.2214C1.15303 17.6405 1.76348 17.8759 2.4 17.8759H21.6C22.2365 17.8759 22.847 17.6405 23.2971 17.2214C23.7471 16.8024 24 16.234 24 15.6414V4.46897C24 3.87635 23.7471 3.308 23.2971 2.88895C22.847 2.4699 22.2365 2.23448 21.6 2.23448Z" fill="#697ED4"/>
</svg>
